<svg xmlns="http://www.w3.org/2000/svg" viewBox="0 0 64 64">
  <rect width="64" height="64" rx="10" fill="#FAF7F2"/>
  <g stroke="#574C39" stroke-width="1.2" fill="none">
    <line x1="8" y1="20" x2="56" y2="20"/>
    <line x1="8" y1="32" x2="56" y2="32"/>
    <line x1="8" y1="44" x2="56" y2="44"/>
  </g>
  <g>
    <circle cx="16" cy="20" r="3" fill="#3B5A7A"/>
    <circle cx="30" cy="32" r="3" fill="#7A2E3A"/>
    <circle cx="44" cy="20" r="3" fill="#1F3D5A"/>
    <circle cx="50" cy="44" r="3" fill="#2E5C5C"/>
    <circle cx="22" cy="44" r="3" fill="#3F5E3C"/>
  </g>
  <g stroke="#9C8866" stroke-width="0.8" fill="none">
    <path d="M16,20 C24,24 26,28 30,32"/>
    <path d="M30,32 C36,28 40,24 44,20"/>
    <path d="M30,32 C40,38 46,42 50,44"/>
    <path d="M30,32 C28,38 24,42 22,44"/>
  </g>
</svg>
